<?xml version="1.0" encoding="iso-8859-1"?>
<!-- Uploaded to: SVG Repo, www.svgrepo.com, Generator: SVG Repo Mixer Tools -->
<!DOCTYPE svg PUBLIC "-//W3C//DTD SVG 1.1//EN" "http://www.w3.org/Graphics/SVG/1.1/DTD/svg11.dtd">
<svg fill="current" version="1.1" id="Capa_1" xmlns="http://www.w3.org/2000/svg" xmlns:xlink="http://www.w3.org/1999/xlink" 
	 width="100%" height="100%" viewBox="0 0 431.456 431.455"
	 xml:space="preserve">
<g>
	<path d="M215.728,0C96.775,0,0,96.775,0,215.728c0,118.95,96.775,215.728,215.728,215.728c118.95,0,215.728-96.777,215.728-215.728
		C431.456,96.775,334.678,0,215.728,0z M391.937,295.072c-1.312,0.152-2.626,0.52-3.862,1.17c-0.499,0.264-15.856,8.1-41.729,16.63
		c7.074-29.993,10.171-58.841,10.665-85.938h51.683C407.302,251.099,401.438,274.07,391.937,295.072z M294.421,392.232
		c-20.8,9.312-43.518,15.069-67.399,16.46v-51.164c32.208-1.103,61.357-5.724,86.132-11.539
		c-4.894,14.101-10.684,28.339-17.71,42.644C294.875,389.803,294.571,391.02,294.421,392.232z M135.299,388.369
		c-0.257-0.502-8.036-15.742-16.531-41.435c29.939,7.082,58.78,10.261,85.839,10.77v50.999
		c-24.184-1.379-47.169-7.243-68.188-16.744C136.24,390.733,135.904,389.521,135.299,388.369z M39.521,295.083
		c-9.499-21.002-15.371-43.984-16.755-68.149h51.248c1.081,32.528,5.765,61.894,11.645,86.836
		c-14.066-4.886-28.258-10.66-42.536-17.664C41.952,295.531,40.742,295.225,39.521,295.083z M39.15,137.191
		c1.443-0.117,2.881-0.525,4.244-1.237c0.493-0.266,15.593-7.964,41.058-16.413c-6.963,29.636-10.045,58.162-10.571,84.975h-51.12
		C24.134,180.668,29.872,157.974,39.15,137.191z M136.513,39.458c20.99-9.469,43.948-15.324,68.094-16.698v51.916
		c-32.604,1.102-62.031,5.822-86.992,11.727c4.92-14.216,10.742-28.564,17.822-42.988C136.067,42.137,136.396,40.793,136.513,39.458
		z M295.588,43.683c0.257,0.498,8.031,15.735,16.523,41.415c-29.681-6.966-58.243-10.041-85.09-10.559V22.771
		c23.847,1.384,46.534,7.127,67.316,16.419C294.439,40.714,294.832,42.244,295.588,43.683z M227.022,97.497
		c29.103,0.506,60.302,4.225,92.575,12.843c6.846,25.877,12.821,58.006,14.217,94.181H227.022V97.497z M204.607,97.711v106.81
		H96.849c0.52-29.081,4.251-60.252,12.875-92.499C135.748,105.117,168.128,99.089,204.607,97.711z M97.054,226.934h107.553V334.69
		c-29.331-0.494-60.78-4.237-93.326-12.987C104.401,295.685,98.406,263.351,97.054,226.934z M227.022,334.471V226.934h107.021
		c-0.481,29.353-4.225,60.828-12.963,93.408C295.206,327.17,263.128,333.103,227.022,334.471z M356.862,204.521
		c-1.116-32.32-5.8-61.502-11.645-86.302c14.26,4.93,28.663,10.769,43.142,17.875c1.27,0.621,2.593,0.914,3.923,1.037
		c9.297,20.805,15.043,43.516,16.422,67.39H356.862z M374.208,105.224c-12.07-5.004-24.041-9.289-35.883-12.938
		c-4.193-13.984-8.465-25.768-12.199-35.119C344.839,70.238,361.129,86.52,374.208,105.224z M104.469,57.787
		c-4.94,11.951-9.19,23.803-12.805,35.53c-13.671,4.109-25.237,8.292-34.458,11.97C70.085,86.851,86.097,70.764,104.469,57.787z
		 M58.085,327.411c11.598,4.777,23.108,8.896,34.494,12.421c3.966,13.256,8.024,24.55,11.616,33.642
		C86.355,360.823,70.753,345.239,58.085,327.411z M326.516,374c4.847-11.743,9.026-23.388,12.595-34.911
		c13.56-4.056,25.146-8.208,34.392-11.863C360.639,345.383,344.736,361.217,326.516,374z"/>
</g>
</svg>